<?xml version="1.0" encoding="utf-8"?>
<!-- Generator: Adobe Illustrator 27.5.0, SVG Export Plug-In . SVG Version: 6.00 Build 0)  -->
<svg version="1.1" id="Capa_1" xmlns="http://www.w3.org/2000/svg" xmlns:xlink="http://www.w3.org/1999/xlink" x="0px" y="0px"
	 viewBox="0 0 2122 2122" style="enable-background:new 0 0 2122 2122;" xml:space="preserve">
<g>
	<g>
		<g>
			<path style="fill:#A7907B;" d="M2020.877,1590.148c0,117.222-429.903,212.267-960.2,212.267
				c-530.326,0-960.239-95.045-960.239-212.267c0-117.242,429.913-212.276,960.239-212.276
				C1590.974,1377.871,2020.877,1472.906,2020.877,1590.148z"/>
			<g>
				<g>
					<g>
						<path style="fill:#00173F;" d="M1403.223,1464.497c0,40.506-61.203,40.496-61.203,0
							C1342.02,1424.049,1403.223,1423.99,1403.223,1464.497z"/>
						<path style="fill:#00173F;" d="M1778.276,1464.497c0,40.536-61.213,40.458-61.213,0
							C1717.063,1424.039,1778.276,1423.99,1778.276,1464.497z"/>
					</g>
					<path style="fill:#754C29;" d="M1805.677,515.142c-542.565,0-512.26-2.787-512.26,5.564c0,999.8-3.089,943.791,5.574,943.791
						c542.564,0,512.25,2.797,512.25-5.564C1811.24,459.669,1814.329,515.142,1805.677,515.142z"/>
					<rect x="1342.02" y="1075.13" style="fill:#915F36;" width="200.544" height="294.303"/>
					<rect x="1562.092" y="1075.13" style="fill:#915F36;" width="200.554" height="294.303"/>
					<rect x="1342.02" y="758.669" style="fill:#915F36;" width="200.544" height="294.313"/>
					<rect x="1562.092" y="758.669" style="fill:#915F36;" width="200.554" height="294.313"/>
					<path style="fill:#915F36;" d="M1762.646,549.003c-454.819,0-429.747-3.927-429.747,9.111
						c0,153.051-3.781,157.582,9.121,157.582c454.75,0,429.747,3.937,429.747-9.12
						C1771.767,553.515,1775.538,549.003,1762.646,549.003z"/>
					<path style="fill:#90AEC1;" d="M1513.508,987.218c-19.245,0-13.671,16.682-13.671-110.694
						C1519.071,876.524,1513.508,859.842,1513.508,987.218z"/>
					<path style="fill:#90AEC1;" d="M1608.572,987.218c-19.245,0-13.671,16.682-13.671-110.694
						C1614.135,876.524,1608.572,859.842,1608.572,987.218z"/>
					<path style="fill:#90AEC1;" d="M1742.369,687.702c-19.245,0-13.671,16.682-13.671-110.694
						C1747.933,577.008,1742.369,560.326,1742.369,687.702z"/>
					<path style="fill:#90AEC1;" d="M1513.508,1271.982c-19.245,0-13.671,16.682-13.671-110.694
						C1519.071,1161.288,1513.508,1144.606,1513.508,1271.982z"/>
					<path style="fill:#90AEC1;" d="M1608.572,1271.982c-19.245,0-13.671,16.682-13.671-110.694
						C1614.135,1161.288,1608.572,1144.606,1608.572,1271.982z"/>
				</g>
			</g>
			<g>
				<g>
					<g>
						<rect x="244.155" y="634.747" style="fill:#E9B375;" width="196.647" height="70.158"/>
					</g>
					<g>
						<rect x="233.807" y="610.611" style="fill:#BF9561;" width="217.363" height="24.136"/>
					</g>
					<rect x="308.379" y="641.227" style="fill:#715735;" width="62.275" height="22.207"/>
					<rect x="308.379" y="641.227" style="fill:#FFFFFF;" width="62.275" height="11.099"/>
				</g>
				<g>
					<g>
						<g>
							<g>
								<rect x="200.784" y="704.389" style="fill:#915F36;" width="635.894" height="49.578"/>
							</g>
							<path style="fill:none;" d="M688.021,712.944c-18.807,0-37.603,0.029-56.409,0c-7.191,0-17.52-0.634-24.01,0.745"/>
						</g>
					</g>
					<g>
						<g>
							<polyline style="fill:#754C29;" points="301.363,824.792 250.722,824.792 250.722,752.817 333.187,752.817 333.187,824.792 
								301.363,824.792 							"/>
						</g>
						<g>
							<polyline style="fill:#754C29;" points="754.934,824.792 704.274,824.792 704.274,752.817 786.759,752.817 786.759,824.792 
								754.934,824.792 							"/>
						</g>
					</g>
				</g>
				<g>
					<g>
						<rect x="498.975" y="463.279" style="fill:#00538B;" width="58.465" height="241.109"/>
					</g>
					<rect x="512.49" y="574.699" style="fill:#FFFFFF;" width="31.435" height="129.69"/>
					<path style="fill:#FFFFFF;" d="M549.147,509.038c0,11.557-9.393,20.911-20.95,20.911c-11.537,0-20.911-9.354-20.911-20.911
						c0-11.557,9.374-20.945,20.911-20.945C539.754,488.092,549.147,497.481,549.147,509.038z"/>
					<path style="fill:#E0E1E2;" d="M543.369,509.038c0,8.365-6.792,15.152-15.172,15.152c-8.361,0-15.152-6.787-15.152-15.152
						c0-8.371,6.792-15.167,15.152-15.167C536.577,493.871,543.369,500.667,543.369,509.038z"/>
				</g>
				<g>
					<g>
						<rect x="557.439" y="463.279" style="fill:#F1C130;" width="58.475" height="241.109"/>
					</g>
					<rect x="570.954" y="574.699" style="fill:#FFFFFF;" width="31.435" height="129.69"/>
					<path style="fill:#FFFFFF;" d="M607.612,509.038c0,11.557-9.374,20.911-20.93,20.911c-11.557,0-20.93-9.354-20.93-20.911
						c0-11.557,9.374-20.945,20.93-20.945C598.238,488.092,607.612,497.481,607.612,509.038z"/>
					<path style="fill:#E0E1E2;" d="M601.834,509.038c0,8.365-6.792,15.152-15.152,15.152c-8.38,0-15.172-6.787-15.172-15.152
						c0-8.371,6.791-15.167,15.172-15.167C595.042,493.871,601.834,500.667,601.834,509.038z"/>
				</g>
				<g>
					<g>
						<rect x="614.823" y="463.279" style="fill:#1B395F;" width="58.465" height="241.109"/>
					</g>
					<rect x="628.328" y="574.699" style="fill:#FFFFFF;" width="31.445" height="129.69"/>
					<path style="fill:#FFFFFF;" d="M664.976,509.038c0,11.557-9.374,20.911-20.93,20.911c-11.556,0-20.93-9.354-20.93-20.911
						c0-11.557,9.374-20.945,20.93-20.945C655.602,488.092,664.976,497.481,664.976,509.038z"/>
					<path style="fill:#E0E1E2;" d="M659.198,509.038c0,8.365-6.782,15.152-15.152,15.152c-8.36,0-15.142-6.787-15.142-15.152
						c0-8.371,6.782-15.167,15.142-15.167C652.416,493.871,659.198,500.667,659.198,509.038z"/>
				</g>
				<g>
					<g>
						<rect x="671.602" y="463.279" style="fill:#DE3A25;" width="58.475" height="241.109"/>
					</g>
					<rect x="685.108" y="574.699" style="fill:#FFFFFF;" width="31.454" height="129.69"/>
					<path style="fill:#FFFFFF;" d="M721.765,509.038c0,11.557-9.374,20.911-20.93,20.911c-11.557,0-20.93-9.354-20.93-20.911
						c0-11.557,9.374-20.945,20.93-20.945C712.391,488.092,721.765,497.481,721.765,509.038z"/>
					<path style="fill:#E0E1E2;" d="M715.987,509.038c0,8.365-6.772,15.152-15.152,15.152c-8.36,0-15.142-6.787-15.142-15.152
						c0-8.371,6.782-15.167,15.142-15.167C709.214,493.871,715.987,500.667,715.987,509.038z"/>
				</g>
			</g>
			<g>
				<g>
					<path style="fill:#ABA9AD;" d="M427.881,1322.914c-61.807,0-113.023-3.664-122.416-8.463l36.112,270.274
						c0,0,23.737,13.656,86.275,13.656c64.039,0,84.901-13.656,84.901-13.656l37.505-270.245
						C540.699,1319.27,489.562,1322.914,427.881,1322.914z"/>
				</g>
				<path style="fill:#90AEC1;" d="M550.258,1314.452c0,5.559-54.801,10.061-122.377,10.061c-67.586,0-122.367-4.502-122.367-10.061
					c0-5.564,54.781-10.061,122.367-10.061C495.457,1304.391,550.258,1308.887,550.258,1314.452z"/>
				<path style="fill:#71818D;" d="M427.881,1371.459c52.511,0,97.276-2.641,115.341-6.382l7.035-50.597
					c-9.559,4.789-60.696,8.434-122.377,8.434c-61.807,0-113.023-3.664-122.416-8.463l6.763,50.567
					C330.137,1368.79,375.146,1371.459,427.881,1371.459z"/>
				<path style="fill:#6E7A84;" d="M427.881,1371.459c-52.735,0-97.744-2.67-115.653-6.441l29.349,219.707
					c0,0,23.737,13.656,86.275,13.656c64.039,0,84.901-13.656,84.901-13.656l30.47-219.648
					C525.157,1368.819,480.392,1371.459,427.881,1371.459z"/>
				<path style="fill:#00173F;" d="M429.089,1384.409c49.783,0,92.55-2.368,112.272-5.817l1.861-13.515
					c-18.066,3.742-62.83,6.382-115.341,6.382c-52.735,0-97.744-2.67-115.653-6.441l1.734,13.038
					C332.203,1381.779,376.841,1384.409,429.089,1384.409z"/>
				<path style="fill:#00173F;" d="M471.613,1583c0-9.876-8.019-17.886-17.881-17.886h-51.741c-9.89,0-17.88,8.01-17.88,17.886l0,0
					c0,9.876,7.99,17.866,17.88,17.866h51.741C463.593,1600.866,471.613,1592.876,471.613,1583L471.613,1583z"/>
				<path style="fill:#1B395F;" d="M469.226,1590.206c0-9.393-7.561-17.013-16.906-17.013h-48.876
					c-9.345,0-16.887,7.62-16.887,17.013l0,0c0,9.369,7.542,16.984,16.887,16.984h48.876
					C461.664,1607.19,469.226,1599.576,469.226,1590.206L469.226,1590.206z"/>
			</g>
		</g>
		<g id="XMLID_163_">
			<g id="XMLID_164_">
				<rect id="XMLID_176_" x="998.792" y="1174.501" style="fill:#603913;" width="45.564" height="474.755"/>
				<rect id="XMLID_175_" x="1620.83" y="1174.501" style="fill:#603913;" width="45.564" height="474.755"/>
				<rect id="XMLID_174_" x="1193.451" y="1257.453" style="fill:#77787B;" width="26.864" height="357.24"/>
				<rect id="XMLID_173_" x="1259.555" y="1246.393" style="fill:#77787B;" width="26.864" height="306.941"/>
				<rect id="XMLID_172_" x="1379.292" y="1246.393" style="fill:#77787B;" width="26.864" height="306.941"/>
				<rect id="XMLID_171_" x="1444.88" y="1257.453" style="fill:#77787B;" width="26.864" height="357.24"/>
				<rect id="XMLID_170_" x="1214.976" y="956.943" style="fill:#77787B;" width="26.865" height="279.906"/>
				<rect id="XMLID_169_" x="1418.015" y="956.943" style="fill:#77787B;" width="26.865" height="279.906"/>
				<path id="XMLID_167_" style="fill:#0062A1;" d="M1466.512,1302.675H1200.71c-21.787,0-39.444-17.666-39.444-39.444l0,0
					c0-21.798,17.657-39.464,39.444-39.464h265.802c21.778,0,39.444,17.666,39.444,39.464l0,0
					C1505.956,1285.009,1488.29,1302.675,1466.512,1302.675z"/>
				<polygon id="XMLID_166_" style="fill:#915F36;" points="1699.397,1205.604 965.379,1205.604 965.379,1169.955 995.313,1134.306 
					1669.463,1134.306 1699.397,1169.955 				"/>
				<rect id="XMLID_165_" x="965.379" y="1169.955" style="fill:#754C29;" width="734.018" height="35.649"/>
			</g>
		</g>
		<g>
			<path style="fill:#1B395F;" d="M1528.933,1091.344h-395.291c-5.915,0-10.709-4.804-10.709-10.723V842.61
				c0-5.919,4.794-10.718,10.709-10.718h395.291c5.915,0,10.718,4.799,10.718,10.718v238.011
				C1539.651,1086.54,1534.848,1091.344,1528.933,1091.344z"/>
			<rect x="1287.843" y="1091.344" style="fill:#00173F;" width="86.889" height="57.008"/>
			<rect x="1246.449" y="1140.026" style="fill:#183A6D;" width="169.675" height="20.541"/>
		</g>
	</g>
	<g>
		<g>
			<path style="fill:#4865A2;" d="M663.203,409.93c-3.713,10.816-5.35,22.119-3.878,33.774c2.28,17.939,9.598,34.416-4.638,49.344
				c-14.938,15.663-25.257,20.745-26.377,44.243c-0.858,18.129,5.584,37.505,26.27,39.303c17.998,1.568,36.112-9.091,53.612-2.11
				c15.259,6.11,16.848,23.615,29.291,32.565c15.932,11.454,44.804,8.541,62.743,5.34c14.938-2.67,36.823,1.267,49.608-7.143
				c20.346-13.393,15.025-39.703,7.932-58.119c-9.042-23.444,4.395-44.394,10.134-67.035c6.684-26.387,0.584-50.981-10.631-74.426
				c-6.412-13.403-4.005-27.137-11.683-40.272c-8.322-14.222-15.337-27.069-29.837-36.097
				c-30.684-19.123-79.863-10.338-104.808,14.119C692.552,361.418,672.031,384.283,663.203,409.93z"/>
			<g>
				<g>
					<path style="fill:#EAB1B8;" d="M735.232,444.336c2.075,10.417,17.159,24.331,20.959,15.415
						c2.329-5.447,4.385-17.442,2.3-27.869c-2.075-10.412-0.341-11.751-9.832-9.856C739.149,423.932,733.136,433.91,735.232,444.336
						z"/>
				</g>
			</g>
			<path style="fill:#EAB1B8;" d="M754.651,479.05c1.608-21.008,63.172,18.041,63.172,18.041l-6.588,80.146
				c0,0-0.643-3.215-30.918-2.504c-18.455,0.438-34.124-0.448-33.198-17.7C747.694,546.377,754.096,486.314,754.651,479.05z"/>
			<path style="fill:#E5958A;" d="M753.716,499.308c8.731,28.151,33.735,48.448,59.927,46.362l4.18-48.58
				c0,0-61.564-39.049-63.172-18.041c-0.175,2.227-0.886,9.408-1.822,18.597C753.2,498.1,753.521,498.646,753.716,499.308z"/>
			<path style="fill:#EAB1B8;" d="M822.042,514.3c-20.317,9.651-53.057-2.149-64.243-20.814
				c-6.772-11.284-9.384-22.709-8.516-35.352c0.984-14.246,5.145-26.933,6.246-41.237c0.468-6.168,1.101-12.375,2.855-18.324
				c2.806-9.53,8.546-18.231,16.302-24.716c7.62-6.373,17.627-8.156,26.913-11.221c7.854-2.587,16.78-5.973,25.198-5.451
				c5.807,0.351,8.77,4.57,12.707,8.536c21.349,21.535,25.51,59.975,19.439,88.565C854.432,475.562,842.963,504.375,822.042,514.3z"
				/>
			<path style="fill:#EAB1B8;" d="M840.605,1016.528c-1.93,40.034-13.905,66.343-22.607,89.12
				c-45.32,118.684-78.148,231.229-97.344,263.536c-20.989,35.322-82.874-28.161-82.874-28.161s85.378-353.776,105.081-376.5
				C762.545,941.786,842.145,984.431,840.605,1016.528z"/>
			<path style="fill:#3F578E;" d="M840.605,1016.528c-1.93,40.034-13.905,66.343-22.607,89.12
				c-45.32,118.684-78.148,231.229-97.344,263.536c-20.989,35.322-88.068-13.798-88.068-13.798s75.781-365.99,95.474-388.719
				C747.743,943.935,842.145,984.431,840.605,1016.528z"/>
			<path style="fill:#EAB1B8;" d="M709.546,1417.135c0,0-15.639,50.816-138.328,202.079c-16.409,20.229-22.957-9.028-22.957-9.028
				s95.61-225.719,111.922-247.419C676.474,1341.067,709.546,1417.135,709.546,1417.135z"/>
			<path style="fill:#3F578E;" d="M666.535,1542.134c43.138-78.246,58.368-179.322,58.368-179.322s-73.89-32.307-90.192-10.611
				c-8.224,10.962-37.963,76.082-65.783,138.995C590.579,1501.958,666.331,1542.041,666.535,1542.134z"/>
			<path style="fill:#EAB1B8;" d="M837.526,998.092c22.412,33.223,28.56,61.471,35.225,84.935
				c34.728,122.202,52.229,215.989,56.185,253.344c4.327,40.867-59.702,43.079-59.702,43.079s-143.307-334.527-141.144-364.52
				C730.252,984.928,819.548,971.461,837.526,998.092z"/>
			<path style="fill:#EAB1B8;" d="M927.669,1416.166c0,0,8.76,54.309-38.577,243.224c-6.333,25.262-26.134-0.136-26.134-0.136
				s-8.107-210.859-2.484-237.412C866.086,1395.279,927.669,1416.166,927.669,1416.166z"/>
			<path style="fill:#4865A2;" d="M944.526,1586.698c15.542-115.956-7.951-235.56-7.951-235.56s-70.772,2.1-76.385,28.652
				c-3.167,14.963-27.8,147.132-28.657,206.908H944.526z"/>
			<path style="fill:#4865A2;" d="M926.753,1277.292c-9.344-52.107-21.554-103.707-36.57-154.469
				c-17.052-57.642-31.474-108.209-55.113-163.346c-6.081-14.153,1.939-74.299-7.308-80.433
				c-21.544-14.295-76.657,3.152-106.045,8.95c-7.016,1.388-11.459,4.95-17.5,8.755c-9.881,6.216-22.928,39.751-26.271,50.932
				c-9.101,30.397-2.241,68.307,13.944,94.148c12.969,20.692,25.208,41.832,37.115,63.143
				c10.232,18.309,22.889,34.645,33.403,53.057c23.425,41.033,38.665,85.661,55.776,129.793
				c5.778,14.923,42.524,85.719,42.699,96.067c0.886,54.792,49.861-23.059,66.679-27.965c9.696-2.826,9.13-4.629,8.536-15.05
				c-0.448-7.957-1.608-15.874-2.787-23.752C931.313,1303.815,929.121,1290.539,926.753,1277.292z"/>
			<path style="fill:#EAB1B8;" d="M832.186,907.306c4.745-94.83,23.191-234.337,11.235-247.828
				c-21.038-23.747-22.022-75.629-37.252-94.66c-22.762-28.458-42.436-41.822-70.898-0.633
				c-9.647,13.958-21.564,97.685-23.844,108.145c-5.038,23.172-6.958,138.635-12.677,231.643L832.186,907.306z"/>
			<path style="fill:#FFD686;" d="M832.186,907.306c4.921-69.442,9.598-126.893,15.63-167.936
				c1.822-12.443,5.613-24.477,7.678-36.721c1.91-11.347-3.478-26.953-8.029-37.184c-4.658-10.422-9.54-20.868-13.964-31.41
				c-4.346-10.378-7.747-21.116-11.147-31.829c-1.043-3.338-6.694-27.615-10.037-27.897c-0.37-0.034-13.057-1.111-18.075-2.193
				c-9.014-1.949-17.403-5.432-25.315-10.144c-2.163-1.291-19.304-15.269-19.839-14.709c-27.693,29.135-43.566,71.235-47.99,108.608
				c-1.608,13.505,0.809,219.799-4.054,248.808L832.186,907.306z"/>
			<g>
				<g>
					<g>
						<path style="fill:#EAB1B8;" d="M870.432,794.581c0.4-8.424-25.452-59.449-13.437-62.738
							c10.075-2.758,44.755,27.303,44.745,27.298c47.522,32.01,88.36,64.594,119.376,93.783
							c30.499,28.687-9.423,26.684-9.423,26.684C969.783,858.877,928.575,842.765,870.432,794.581z"/>
					</g>
				</g>
			</g>
			<g>
				<g>
					<path style="fill:#FFECA5;" d="M888.78,732.316c-19.644-20.429-48.351-43.147-55.366-51.81
						c-40.897-50.406-81.627-96.486-105.188-78.192c-26.68,20.725,9.647,82.124,46.792,123.882
						c32.302,36.312,61.534,53.856,102.128,84.735C888.254,793.655,894.88,754.98,888.78,732.316z"/>
				</g>
			</g>
			<path style="fill:#4865A2;" d="M798.052,324.6c3.391,2.202,5.963,5.574,9.919,9.354c7.903,7.591,15.445,15.927,18.67,26.66
				c2.066,6.879,3.089,15.181,3.713,22.328c1.169,13.316-3.683,25.423-14.236,33.408c-8.176,6.188-17.16,9.102-27.108,10.626
				c-5.145,0.789-11.605,2.11-15.805,5.379c-3.04,2.378-3.498,6.68-6.383,8.857c-9.851,7.42-9.812-8.438-10.738-13.525
				c0.487,2.67-0.088,0.668-1.696-5.993c-3.527-14.592-3.449-26.509-11.927-39.206c-7.445-11.147-10.368-31.435-2.572-43.176
				c8.809-13.257,33.412-17.3,47.941-17.398C792.371,321.882,795.451,322.89,798.052,324.6z"/>
			<path style="fill:#374D7E;" d="M953.939,1675.56c-7.474-1.087-9.793-0.048-17.276-1.281c-7.386-1.208-14.646-3.8-21.34-7.113
				c-6.616-3.294-16.243-9.993-21.924-14.543c-0.721-0.57-1.442-1.053-2.173-1.486c-10.114,4.672-15.893,4.365-26.728-0.215
				c-1.033-0.438-1.695-1.072-2.075-1.802c-0.312,0.249-0.594,0.541-0.848,0.863c-1.735,2.222-2.036,5.281-2.446,7.965
				c-0.76,5.023-3.118,25.827-2.095,30.763c1.452,6.972,39.415,15.283,51.859,16.058c16.779,1.043,29.573,1.744,46.129-0.935
				C971.177,1701.222,966.597,1677.412,953.939,1675.56z"/>
			<path style="fill:#374D7E;" d="M629.819,1650.245c-6.626-3.62-9.169-3.464-15.766-7.221c-6.49-3.698-12.404-8.643-17.52-14.085
				c-5.057-5.379-11.761-15.016-15.503-21.242c-0.477-0.794-0.984-1.491-1.52-2.154c-11.099,0.863-16.419-1.447-24.984-9.501
				c-0.819-0.765-1.218-1.598-1.316-2.402c-0.38,0.122-0.75,0.287-1.092,0.507c-2.407,1.476-3.761,4.248-5.076,6.621
				c-2.466,4.434-11.898,23.128-12.658,28.102c-1.062,7.045,31.639,28.034,43.05,33.091c15.366,6.806,27.108,11.917,43.576,15.162
				C637.049,1680.291,641.025,1656.374,629.819,1650.245z"/>
			<path style="fill:#EAB1B8;" d="M1111.434,908.5c-0.828-3.639-2.153-7.693-3.137-8.633c-11.274-10.743-20.589-18.236-35.478-23.44
				c-4.658-1.632-64.702-24.034-64.487-25.325l1.851,27.074c23.63,15.722,45.193,35.118,72.341,44.2
				C1092.998,925.878,1114.932,923.822,1111.434,908.5z"/>
			<path style="fill:#4865A2;" d="M863.777,405.199c-2.962-17.208-7.455-35.849-17.393-50.499
				c-7.055-10.426-18.085-22.431-29.701-27.478c-6.343-2.753-15.941-6.699-22.723-5.754c-8.565,16.901,7.484,40.735,15.055,56.102
				c5.145,10.412,14.051,13.043,21.603,20.4c5.759,5.608,9.725,12.628,14.616,18.942c5.223,6.763,11.361,11.596,15.035,19.538
				C867.177,433.267,864.79,411.094,863.777,405.199z"/>
		</g>
		<g>
			<path style="fill:#EAB1B8;" d="M1429.961,1424.541c0,0,22.957,58.699-24.39,247.614c-3.79,15.133-15.571,14.168-21.875,9.296
				c-4.229-3.264-4.258-9.432-4.258-9.432s-22.304-215.234-16.682-241.797C1368.368,1403.659,1429.961,1424.541,1429.961,1424.541z"
				/>
			<path style="fill:#EAB1B8;" d="M1359.267,1368.03c1.559,14.348-2.26,67.23,6.363,78.485
				c12.755,16.662,41.042,19.171,56.234,5.837c9.549-8.39,8.614-33.291,13.417-44.385c4.726-10.928,37.701-215.911,40.322-261.021
				c3.079-53.028,1.9-39.371,2.611-92.487c0.302-20.999,0.448-41.998,0.526-63.001c0.039-12.512,3.478-30.948-12.453-34.09
				c-18.933-3.737-23.035-36.37-39.503-26.874c-20.619,11.907-31.513,53.062-39.337,73.393
				c-23.454,60.891-28.716,125.875-28.979,190.596c-0.185,45.793-3.284,91.698-1.042,137.485
				C1357.981,1343.357,1357.932,1355.844,1359.267,1368.03z"/>
			<path style="fill:#374D7E;" d="M1315.467,1691.531c7.474-1.087,9.793-0.053,17.296-1.281c7.367-1.208,14.636-3.796,21.311-7.118
				c6.626-3.279,16.263-9.992,21.934-14.538c0.721-0.57,1.452-1.042,2.183-1.481c10.105,4.667,15.893,4.36,26.728-0.224
				c1.023-0.434,1.695-1.067,2.065-1.798c0.312,0.249,0.595,0.536,0.858,0.862c1.725,2.222,2.036,5.281,2.436,7.976
				c0.76,5.013,3.118,25.827,2.095,30.757c-1.442,6.967-39.405,15.279-51.858,16.059c-16.78,1.038-29.573,1.734-46.129-0.936
				C1298.24,1717.192,1302.819,1693.387,1315.467,1691.531z"/>
			<path style="fill:#EAB1B8;" d="M1627.212,1417.559c0,0,36.921,51.089,38.363,245.84c0.107,15.591-11.537,17.613-18.865,14.47
				c-4.911-2.105-6.48-8.063-6.48-8.063s-75.449-202.81-76.667-229.933C1562.355,1412.76,1627.212,1417.559,1627.212,1417.559z"/>
			<path style="fill:#EAB1B8;" d="M1623.422,1369.613c1.734,14.319,13.447,63.171,7.63,76.087
				c-8.614,19.137-34.738,22.392-52.57,12.872c-11.205-5.993-5.047,2.762-12.248-6.943c-7.094-9.554-93.7-227.4-106.543-270.727
				c-15.103-50.923-10.836-37.9-23.659-89.442c-5.077-20.385-10.017-40.784-14.879-61.218c-2.894-12.166-10.446-29.34,4.336-36.039
				c17.579-7.956,14.139-40.662,32.321-35.176c22.802,6.884,42.806,44.472,55.065,62.474
				c36.726,53.934,56.682,116.009,71.707,178.952c10.631,44.55,24.126,88.531,32.39,133.617
				C1619.037,1345.287,1621.931,1357.438,1623.422,1369.613z"/>
			<path style="fill:#E76C63;" d="M1350.663,1128.226c0.263-64.706,45.388-194.216,52.102-209.056l135.814-4.244
				c5.34,12.969,58.231,101.89,65.656,213.3c3.05,45.71,20.433,219.127,19.108,231.312c-0.146,1.301-274.688,4.209-274.688,4.209
				C1347.487,1352.079,1350.478,1174.033,1350.663,1128.226z"/>
			<path style="fill:#374D7E;" d="M1574.107,1693.655c7.464-1.087,9.793-0.049,17.276-1.282c7.376-1.208,14.636-3.8,21.33-7.113
				c6.616-3.294,16.253-9.998,21.934-14.544c0.721-0.57,1.432-1.052,2.173-1.481c10.115,4.668,15.893,4.351,26.728-0.229
				c1.014-0.428,1.696-1.062,2.076-1.792c0.302,0.248,0.585,0.536,0.848,0.862c1.725,2.217,2.036,5.281,2.436,7.971
				c0.77,5.018,3.118,25.822,2.095,30.752c-1.452,6.977-39.396,15.289-51.868,16.059c-16.76,1.048-29.564,1.744-46.12-0.93
				C1556.869,1719.316,1561.458,1695.507,1574.107,1693.655z"/>
			<path style="fill:#E76C63;" d="M1575.744,426.724c1.608,3.766,2.865,7.547,3.732,11.313c5.593,24.351-3.674,60.546-7.786,85.183
				c-6.538,31.006,43.625,56.219,64.107,71.854c27.43,20.92,38.451,50.124,35.605,85.992c-2.484,31.401-24.107,67.157-53.826,80.321
				c-19.294,8.541-40.965,2.368-57.705,17.657c-17.423,15.898-18.377,51.488-51.03,35.215
				c-21.613-10.782-36.94-47.055-49.549-66.441c-20.209-31.05-24.633-69.793-45.768-100.155
				c-22.879-32.872-54.333-34.699-36.005-82.25c9.043-23.445-4.395-44.385-10.134-67.02c-6.694-26.387-0.594-50.987,10.622-74.44
				c6.421-13.394,4.014-27.123,11.693-40.263c8.322-14.232,15.347-27.069,29.837-36.107c30.684-19.113,79.863-10.339,104.818,14.119
				C1541.454,378.466,1565.444,402.422,1575.744,426.724z"/>
			<g>
				<g>
					<g>
						<path style="fill:#EAB1B8;" d="M1305.937,794.503c-0.419-8.424,9.462-37.817-2.553-41.082
							c-10.085-2.743-12.813-7.805-12.804-7.805c-47.464,32.087-104.272,78.251-135.23,107.478
							c-30.45,28.755,9.462,26.674,9.462,26.674C1206.683,858.965,1247.862,842.79,1305.937,794.503z"/>
					</g>
				</g>
			</g>
			<g>
				<g>
					<path style="fill:#7BCBEE;" d="M1287.462,732.272c19.625-20.463,48.292-43.235,55.308-51.898
						c40.808-50.479,81.451-96.628,105.042-78.377c26.729,20.682-9.51,82.134-46.586,123.965
						c-32.224,36.365-61.437,53.959-101.983,84.906C1288.105,793.611,1281.411,754.946,1287.462,732.272z"/>
				</g>
			</g>
			<g>
				<g>
					<path style="fill:#EAB1B8;" d="M1500.051,462.626c-2.075,10.412-17.169,24.336-20.969,15.425
						c-2.319-5.451-4.375-17.451-2.29-27.868c2.076-10.422,0.331-11.761,9.832-9.856
						C1496.124,442.222,1502.136,452.205,1500.051,462.626z"/>
				</g>
			</g>
			<path style="fill:#EAB1B8;" d="M1480.631,497.345c-1.598-21.008-63.181,18.041-63.181,18.041l6.587,80.146
				c0,0,0.643-3.22,30.928-2.505c18.456,0.429,34.114-0.453,33.189-17.7C1487.578,564.672,1481.186,504.609,1480.631,497.345z"/>
			<path style="fill:#E5958A;" d="M1481.557,517.607c-8.711,28.142-33.734,48.438-59.917,46.353l-4.19-48.575
				c0,0,61.583-39.05,63.181-18.041c0.175,2.222,0.887,9.408,1.822,18.597C1482.073,516.399,1481.761,516.94,1481.557,517.607z"/>
			<path style="fill:#EAB1B8;" d="M1413.24,532.599c20.326,9.652,53.047-2.153,64.243-20.818
				c6.772-11.289,9.374-22.709,8.507-35.367c-0.974-14.241-5.135-26.918-6.236-41.223c-0.468-6.178-1.092-12.37-2.865-18.329
				c-2.797-9.525-8.536-18.226-16.293-24.711c-7.62-6.382-17.627-8.161-26.913-11.216c-7.854-2.597-16.77-5.983-25.198-5.466
				c-5.817,0.361-8.77,4.58-12.706,8.536c-21.349,21.534-25.501,59.99-19.44,88.57
				C1380.841,493.861,1392.309,522.665,1413.24,532.599z"/>
			<path style="fill:#EAB1B8;" d="M1403.087,925.596c-4.746-94.826-23.182-234.328-11.225-247.828
				c21.038-23.752,22.031-75.62,37.261-94.655c22.762-28.458,42.417-41.822,70.879-0.643c9.656,13.973,21.573,97.695,23.854,108.146
				c5.047,23.176,6.958,138.64,12.677,231.643L1403.087,925.596z"/>
			<path style="fill:#BFDFF2;" d="M1403.087,925.596c-4.911-69.446-9.588-126.888-15.62-167.941
				c-1.822-12.434-5.613-24.468-7.678-36.721c-1.91-11.337,3.469-26.938,8.039-37.174c4.648-10.431,9.52-20.867,13.954-31.41
				c4.355-10.373,7.737-21.11,11.137-31.829c1.062-3.343,6.694-27.615,10.046-27.898c0.37-0.034,13.057-1.111,18.075-2.202
				c9.004-1.939,17.403-5.432,25.315-10.139c2.163-1.286,19.313-15.269,19.839-14.709c27.693,29.13,43.557,71.245,48,108.618
				c1.598,13.496-0.819,219.794,4.044,248.808L1403.087,925.596z"/>
			<path style="fill:#9CD4F0;" d="M1415.15,798.829c-1.247-42.158,0.029-84.843,12.482-125.461
				c10.728-34.982,26.728-67.317,45.788-98.44c5.593-4.36,12.433-9.705,12.774-9.354c27.693,29.13,43.557,71.245,48,108.618
				c1.598,13.496,30.753,261.967,35.605,290.98l-132.628,25.466C1430.068,946.682,1416.465,843.068,1415.15,798.829z"/>
			<path style="fill:#E76C63;" d="M1437.221,342.89c-3.381,2.207-5.963,5.579-9.91,9.35c-7.903,7.595-15.444,15.926-18.67,26.66
				c-2.066,6.889-3.089,15.182-3.722,22.334c-1.17,13.31,3.693,25.422,14.236,33.417c8.176,6.183,17.169,9.101,27.118,10.626
				c5.145,0.779,11.615,2.095,15.805,5.379c3.05,2.378,3.498,6.675,6.373,8.843c9.871,7.425,9.822-8.434,10.748-13.52
				c-0.488,2.675,0.078,0.672,1.695-5.983c3.537-14.597,3.449-26.514,11.927-39.211c7.445-11.152,10.368-31.435,2.563-43.171
				c-8.809-13.257-33.413-17.305-47.931-17.413C1442.902,340.176,1439.822,341.185,1437.221,342.89z"/>
			<path style="fill:#E76C63;" d="M1371.506,423.494c2.962-17.204,7.455-35.844,17.384-50.509
				c7.074-10.426,18.095-22.427,29.71-27.464c6.344-2.758,15.941-6.714,22.724-5.754c8.565,16.896-7.484,40.73-15.065,56.087
				c-5.125,10.427-14.041,13.057-21.593,20.4c-5.768,5.608-9.734,12.638-14.616,18.952c-5.223,6.758-11.361,11.596-15.035,19.527
				C1368.105,451.566,1370.493,429.384,1371.506,423.494z"/>
			<path style="fill:#EAB1B8;" d="M1065.12,908.846c0.828-3.654,2.144-7.708,3.118-8.648c11.264-10.767,20.56-18.275,35.449-23.498
				c4.658-1.642,64.662-24.146,64.448-25.442l-1.822,27.074c-23.591,15.766-45.116,35.206-72.263,44.331
				C1083.595,926.181,1061.651,924.164,1065.12,908.846z"/>
		</g>
		<g>
			<g>
				<g>
					<g>
						<path style="fill:#EAB1B8;" d="M1533.435,826.805c-6.685-5.14-22.646-31.732-32.926-24.692
							c-8.623,5.895-14.256,4.692-14.256,4.692c-6.344,56.935-8.039,130.099-5.847,172.628
							c2.144,41.827,26.436,10.085,26.436,10.085C1518.156,944.154,1532.548,902.317,1533.435,826.805z"/>
					</g>
				</g>
			</g>
			<g>
				<g>
					<path style="fill:#7BCBEE;" d="M1474.092,800.505c-2.865-28.204-1.608-64.794-3.654-75.741
						c-11.966-63.81-20.755-124.672,8.438-130.796c33.072-6.933,56.37,60.497,64.175,115.839
						c6.782,48.126,1.237,81.758-1.491,132.696C1521.196,839.789,1487.422,819.818,1474.092,800.505z"/>
				</g>
			</g>
			<path style="fill:#EAB1B8;" d="M1464.329,1084.265c-2.232-2.991-4.473-6.626-4.55-7.985c-0.896-15.542-0.585-27.493,5.086-42.217
				c1.774-4.609,23.552-64.886,22.422-65.549l19.439,18.938c-3.293,28.175-2.465,57.174-13.116,83.756
				C1489.508,1081.444,1473.742,1096.85,1464.329,1084.265z"/>
		</g>
	</g>
</g>
</svg>
